#!OML:ASF H:\Male1\Project 1\Capture day 1\Session 1\Male1.ASF
:FULLY-SPECIFIED
:DEGREES
181
root 19.8874 15.393 -1.01673 3.11201 -37.9548 4.90067
lowerback 21.2353 2.23114 0.862116
upperback 14.7344 2.42951 4.9661
thorax 4.09317 0.811263 4.42814
lowerneck -7.31687 -8.87085 -0.87914
upperneck -2.05427 -12.1571 17.8887
head 1.82401 -5.87611 4.96468
rclavicle -8.11041e-014 9.54166e-015
rhumerus -3.3824 29.3479 -68.601
rradius 67.1093
rwrist -81.3109
rhand -37.3748 -27.7174
rfingers 7.12502
rthumb -10.4362 -57.4384
lclavicle -8.11041e-014 9.54166e-015
lhumerus -20.1987 -41.9252 93.4628
lradius 83.1049
lwrist 17.3219
lhand -15.3057 37.4407
lfingers 7.12502
lthumb 10.8699 67.1393
rfemur -24.7188 8.55997 5.04282
rtibia 28.8002
rfoot -24.8587 -32.0532
rtoes -10.4832
lfemur -17.5326 -10.9233 -19.4321
ltibia 25.8484
lfoot -15.1574 8.15277
ltoes -20.0988
182
root 19.7718 15.3919 -1.07724 3.19661 -37.8143 4.79816
lowerback 21.2262 2.06543 1.1724
upperback 14.7811 2.25803 4.98157
thorax 4.17654 0.744479 4.30154
lowerneck -7.52856 -8.77227 -0.776701
upperneck -1.87864 -12.0742 18.0177
head 1.90673 -5.81247 4.97956
rclavicle 1.74931e-014 8.42847e-014
rhumerus -1.08438 27.1873 -67.427
rradius 63.9776
rwrist -80.1844
rhand -36.8997 -27.9589
rfingers 7.12502
rthumb -9.9779 -57.7024
lclavicle 1.74931e-014 8.42847e-014
lhumerus -15.2375 -43.5558 92.6069
lradius 79.087
lwrist 18.9758
lhand -14.9119 37.7537
lfingers 7.12502
lthumb 11.2497 67.4321
rfemur -24.4403 8.54904 5.65513
rtibia 28.5625
rfoot -25.1414 -32.317
rtoes -11.2272
lfemur -17.439 -11.2347 -18.8186
ltibia 25.7818
lfoot -15.1494 8.48025
ltoes -20.6608
183
root 19.6553 15.3956 -1.13969 3.31967 -37.7102 4.63332
lowerback 21.2555 1.89809 1.52028
upperback 14.8202 2.09118 4.98706
thorax 4.23256 0.683549 4.14073
lowerneck -7.77318 -8.63546 -0.610781
upperneck -1.66936 -11.9532 18.1383
head 1.99685 -5.72621 4.98315
rclavicle 3.18055e-014 7.95139e-015
rhumerus 1.25431 24.863 -66.5117
rradius 60.645
rwrist -78.6987
rhand -36.3342 -28.1561
rfingers 7.12502
rthumb -9.43232 -57.925
lclavicle 3.18055e-014 7.95139e-015
lhumerus -10.1335 -44.95 91.6381
lradius 74.7977
lwrist 20.7069
lhand -14.6076 38.0604
lfingers 7.12502
lthumb 11.5432 67.7226
rfemur -24.2862 8.19174 6.44552
rtibia 28.5087
rfoot -24.9936 -32.3628
rtoes -12.4226
lfemur -17.3161 -11.6719 -18.1453
ltibia 25.674
lfoot -15.1508 8.96074
ltoes -20.797
184
root 19.5376 15.4035 -1.20303 3.42211 -37.6257 4.47906
lowerback 21.3089 1.73638 1.83995
upperback 14.8608 1.92792 4.98218
thorax 4.27628 0.622983 3.9836
lowerneck -8.03786 -8.47493 -0.413313
upperneck -1.44537 -11.809 18.2678
head 2.09146 -5.62609 4.98561
rclavicle 5.08889e-014 0
rhumerus 3.60714 22.3587 -65.8577
rradius 57.1627
rwrist -76.8405
rhand -35.5808 -28.2715
rfingers 7.12502
rthumb -8.70531 -58.072
lclavicle 5.08889e-014 0
lhumerus -5.01023 -46.0728 90.6703
lradius 70.2448
lwrist 22.3135
lhand -14.426 38.3241
lfingers 7.12502
lthumb 11.7183 67.9763
rfemur -24.2073 7.68825 7.25374
rtibia 28.5504
rfoot -24.6492 -32.2255
rtoes -13.5577
lfemur -17.1383 -12.2522 -17.4848
ltibia 25.5172
lfoot -15.1699 9.58348
ltoes -20.4869
185
root 19.4192 15.4129 -1.26641 3.48016 -37.5362 4.36423
lowerback 21.3696 1.57557 2.06739
upperback 14.9066 1.75143 4.99545
thorax 4.31827 0.547798 3.90088
lowerneck -8.2998 -8.29529 -0.242879
upperneck -1.21895 -11.6394 18.397
head 2.18584 -5.51277 4.99468
rclavicle -2.06736e-014 4.29375e-014
rhumerus 5.96821 19.7602 -65.4163
rradius 53.6087
rwrist -74.6287
rhand -34.7067 -28.2151
rfingers 7.12502
rthumb -7.86169 -58.049
lclavicle -2.06736e-014 4.29375e-014
lhumerus -0.0577902 -46.8483 89.8531
lradius 65.4946
lwrist 23.5002
lhand -14.3741 38.499
lfingers 7.12502
lthumb 11.7684 68.1484
rfemur -24.1431 7.10569 8.02474
rtibia 28.6387
rfoot -24.2865 -31.9035
rtoes -14.38
lfemur -16.9085 -12.9578 -16.8707
ltibia 25.3193
lfoot -15.2271 10.2931
ltoes -19.6634
186
root 19.3015 15.4216 -1.32888 3.49116 -37.4284 4.30615
lowerback 21.4197 1.41046 2.19224
upperback 14.9559 1.55297 5.03016
thorax 4.36627 0.452686 3.90373
lowerneck -8.54223 -8.10767 -0.10954
upperneck -1.01032 -11.453 18.5055
head 2.271 -5.39313 5.00636
rclavicle 3.81667e-014 5.725e-014
rhumerus 8.30921 17.144 -65.1588
rradius 50.0975
rwrist -72.1837
rhand -33.7577 -28.0903
rfingers 7.12502
rthumb -6.94567 -57.9564
lclavicle 3.81667e-014 5.725e-014
lhumerus 4.57752 -47.2696 89.2722
lradius 60.6312
lwrist 23.9844
lhand -14.4275 38.5382
lfingers 7.12502
lthumb 11.7168 68.1905
rfemur -24.0737 6.43898 8.735
rtibia 28.7498
rfoot -23.9561 -31.4547
rtoes -15.0429
lfemur -16.6604 -13.7471 -16.3299
ltibia 25.1014
lfoot -15.3017 11.0611
ltoes -18.5031
187
root 19.185 15.4295 -1.38898 3.46192 -37.3142 4.3239
lowerback 21.4341 1.24782 2.15027
upperback 15.0034 1.3301 5.11874
thorax 4.42534 0.32955 4.06436
lowerneck -8.73785 -7.91804 -0.0843785
upperneck -0.834516 -11.2448 18.5778
head 2.34033 -5.2675 5.02862
rclavicle 1.90833e-014 -2.06736e-014
rhumerus 10.6124 14.6299 -65.0165
rradius 46.7389
rwrist -69.6782
rhand -33.0661 -27.7063
rfingers 7.12502
rthumb -6.27803 -57.5933
lclavicle 1.90833e-014 -2.06736e-014
lhumerus 8.77709 -47.2883 89.0391
lradius 55.7374
lwrist 23.609
lhand -14.533 38.381
lfingers 7.12502
lthumb 11.6151 68.0391
rfemur -24.0079 5.68293 9.37218
rtibia 28.8711
rfoot -23.616 -30.9557
rtoes -15.7848
lfemur -16.4442 -14.5436 -15.8905
ltibia 24.9082
lfoot -15.3165 11.8971
ltoes -17.6257
188
root 19.0702 15.4372 -1.44616 3.4448 -37.2123 4.36869
lowerback 21.4218 1.08144 1.99811
upperback 15.0321 1.08527 5.251
thorax 4.47617 0.184498 4.33883
lowerneck -8.90743 -7.7257 -0.132415
upperneck -0.671088 -11.0183 18.5751
head 2.39863 -5.13617 5.04279
rclavicle 4.77083e-014 6.36111e-015
rhumerus 12.8287 12.2289 -65.0446
rradius 43.6138
rwrist -67.2451
rhand -32.5926 -27.1485
rfingers 7.12502
rthumb -5.82093 -57.0485
lclavicle 4.77083e-014 6.36111e-015
lhumerus 12.4889 -46.942 89.1248
lradius 50.9337
lwrist 22.5312
lhand -14.6589 38.0471
lfingers 7.12502
lthumb 11.4937 67.712
rfemur -23.9681 4.8907 9.97805
rtibia 28.9894
rfoot -23.2753 -30.4389
rtoes -16.5564
lfemur -16.3162 -15.2578 -15.5176
ltibia 24.7901
lfoot -15.2141 12.8001
ltoes -17.4297
189
root 18.9576 15.4452 -1.50068 3.51115 -37.1588 4.35331
lowerback 21.4004 0.916377 1.81451
upperback 15.0284 0.838617 5.42471
thorax 4.4971 0.0338285 4.67649
lowerneck -9.04227 -7.53481 -0.234685
upperneck -0.531674 -10.7778 18.4968
head 2.44023 -5.00286 5.04576
rclavicle -1.24042e-013 4.77083e-015
rhumerus 14.9063 9.92999 -65.2736
rradius 40.8144
rwrist -65.0224
rhand -32.2903 -26.4933
rfingers 7.12502
rthumb -5.52899 -56.4012
lclavicle -1.24042e-013 4.77083e-015
lhumerus 15.7055 -46.2997 89.4634
lradius 46.3717
lwrist 21.122
lhand -14.7584 37.6161
lfingers 7.12502
lthumb 11.3977 67.2863
rfemur -23.9808 4.1559 10.624
rtibia 29.0879
rfoot -22.9766 -29.9234
rtoes -17.2086
lfemur -16.312 -15.799 -15.1418
ltibia 24.7903
lfoot -15.0286 13.7293
ltoes -17.6866
190
root 18.8473 15.4537 -1.55299 3.68475 -37.1862 4.23367
lowerback 21.3874 0.769399 1.66345
upperback 15.0101 0.620061 5.62566
thorax 4.49949 -0.10226 5.02098
lowerneck -9.19977 -7.35731 -0.363574
upperneck -0.428787 -10.544 18.3609
head 2.47283 -4.87589 5.03512
rclavicle 1.11319e-013 -3.18055e-014
rhumerus 16.8355 7.69759 -65.6842
rradius 38.4202
rwrist -63.0728
rhand -32.0562 -25.9371
rfingers 7.12502
rthumb -5.30298 -55.8508
lclavicle 1.11319e-013 -3.18055e-014
lhumerus 18.5266 -45.4899 89.8961
lradius 42.2065
lwrist 19.803
lhand -14.7546 37.1024
lfingers 7.12502
lthumb 11.4015 66.7724
rfemur -24.0475 3.55398 11.3464
rtibia 29.1503
rfoot -22.7499 -29.4409
rtoes -17.6386
lfemur -16.4262 -16.084 -14.7398
ltibia 24.9422
lfoot -14.8373 14.656
ltoes -18.0821
191
root 18.7389 15.4627 -1.60341 3.94765 -37.305 4.03468
lowerback 21.3765 0.656037 1.55955
upperback 14.9856 0.451535 5.82478
thorax 4.493 -0.209744 5.32849
lowerneck -9.37997 -7.20404 -0.50192
upperneck -0.375726 -10.3337 18.212
head 2.49628 -4.76366 5.02061
rclavicle 5.88403e-014 -7.95139e-014
rhumerus 18.5761 5.57868 -66.2283
rradius 36.453
rwrist -61.3536
rhand -31.7808 -25.5284
rfingers 7.12502
rthumb -5.03708 -55.4485
lclavicle 5.88403e-014 -7.95139e-014
lhumerus 21.0123 -44.6596 90.2821
lradius 38.566
lwrist 18.884
lhand -14.6374 36.6222
lfingers 7.12502
lthumb 11.5144 66.286
rfemur -24.1631 3.11842 12.1193
rtibia 29.1684
rfoot -22.5681 -29.0334
rtoes -17.9314
lfemur -16.647 -16.064 -14.3524
ltibia 25.2631
lfoot -14.7053 15.6046
ltoes -18.4277
192
root 18.6323 15.4714 -1.65197 4.22575 -37.5077 3.81818
lowerback 21.3827 0.591565 1.47707
upperback 14.9679 0.348892 5.99862
thorax 4.48161 -0.281263 5.58524
lowerneck -9.5659 -7.08276 -0.625909
upperneck -0.37683 -10.1601 18.0795
head 2.50838 -4.67305 5.00692
rclavicle -8.5875e-014 1.43125e-014
rhumerus 20.0958 3.6514 -66.8226
rradius 34.8973
rwrist -59.819
rhand -31.3376 -25.3557
rfingers 7.12502
rthumb -4.60916 -55.2856
lclavicle -8.5875e-014 1.43125e-014
lhumerus 23.2233 -43.9469 90.5111
lradius 35.4928
lwrist 18.4196
lhand -14.3804 36.2212
lfingers 7.12502
lthumb 11.7623 65.8709
rfemur -24.2877 2.86873 12.8811
rtibia 29.1547
rfoot -22.4173 -28.722
rtoes -18.1433
lfemur -16.9162 -15.7661 -14.0592
ltibia 25.743
lfoot -14.7329 16.4991
ltoes -18.2496
193
root 18.5279 15.4795 -1.69855 4.49158 -37.7736 3.60468
lowerback 21.3992 0.573226 1.38107
upperback 14.9597 0.302672 6.16146
thorax 4.47136 -0.325171 5.82853
lowerneck -9.72528 -6.9828 -0.754815
upperneck -0.41774 -10.0074 17.9612
head 2.50734 -4.59645 4.99842
rclavicle -4.6118e-014 6.67916e-014
rhumerus 21.4024 2.04823 -67.3418
rradius 33.7016
rwrist -58.433
rhand -30.7464 -25.3626
rfingers 7.12502
rthumb -4.03826 -55.3041
lclavicle -4.6118e-014 6.67916e-014
lhumerus 25.1635 -43.3556 90.587
lradius 32.9369
lwrist 18.2051
lhand -14.0388 35.851
lfingers 7.12502
lthumb 12.0917 65.4816
rfemur -24.4129 2.79374 13.6092
rtibia 29.1425
rfoot -22.3292 -28.4982
rtoes -18.2133
lfemur -17.2037 -15.2569 -13.8872
ltibia 26.3468
lfoot -14.9799 17.2998
ltoes -17.3704
194
root 18.4262 15.4863 -1.74226 4.71915 -38.074 3.43717
lowerback 21.408 0.588003 1.23916
upperback 14.9577 0.291199 6.31622
thorax 4.4685 -0.354768 6.08379
lowerneck -9.83796 -6.89544 -0.90108
upperneck -0.477471 -9.86384 17.8444
head 2.49468 -4.52767 4.99431
rclavicle -6.20208e-014 6.36111e-014
rhumerus 22.5013 0.895967 -67.6842
rradius 32.815
rwrist -57.2642
rhand -30.015 -25.6145
rfingers 7.12502
rthumb -3.33191 -55.5682
lclavicle -6.20208e-014 6.36111e-014
lhumerus 26.8301 -42.8487 90.5403
lradius 30.8109
lwrist 17.9817
lhand -13.6889 35.6633
lfingers 7.12502
lthumb 12.4291 65.2737
rfemur -24.548 2.83026 14.2682
rtibia 29.1714
rfoot -22.2938 -28.3419
rtoes -18.2409
lfemur -17.5089 -14.6259 -13.873
ltibia 27.0384
lfoot -15.438 17.9486
ltoes -15.8583
195
root 18.3269 15.4914 -1.78151 4.86886 -38.3832 3.37856
lowerback 21.3867 0.630413 1.03264
upperback 14.9596 0.30501 6.44783
thorax 4.48179 -0.37487 6.34652
lowerneck -9.90961 -6.82435 -1.02877
upperneck -0.540221 -9.73946 17.6967
head 2.4731 -4.47076 4.9778
rclavicle 4.92986e-014 2.06736e-014
rhumerus 23.3821 0.2016 -67.8136
rradius 32.1967
rwrist -56.3889
rhand -29.4598 -25.834
rfingers 7.12502
rthumb -2.79578 -55.7954
lclavicle 4.92986e-014 2.06736e-014
lhumerus 28.2076 -42.4188 90.4056
lradius 29.0524
lwrist 17.5595
lhand -13.4202 35.534
lfingers 7.12502
lthumb 12.6881 65.1286
rfemur -24.692 2.90256 14.8095
rtibia 29.2704
rfoot -22.2879 -28.2167
rtoes -18.3467
lfemur -17.8416 -13.9657 -14.0661
ltibia 27.7943
lfoot -15.9661 18.4335
ltoes -14.3153
